<svg id="Layer_1" xmlns="http://www.w3.org/2000/svg" viewBox="0 0 363.1 354.1"><style>.st0{fill:#709ebd}.st1{fill:#fff}</style><path class="st0" d="M115 75.1l2.8 2.8h56.7l2.8-2.8zm14.2 48.1l-2.8 2.8h39.5l-2.8-2.8zm42.4-42.5h-51l2.9 2.9h45.3zm-45.3 5.7l2.8 2.8h34l2.9-2.8zm-8.4 48.1l-2.9 2.9h62.3l-2.9-2.9zm36.7 175.7h-17l2.9 2.8h11.3zm51-2.8h22.7l2.8-2.9h-28.3zm-5.6-5.7h34l2.8-2.8h-39.7zm-96.4-153l2.9-2.8H44.1l2.9 2.8zm-14.1 85H61.1l2.9 2.9h22.6zm127.5 85l2.8-2.8h-5.7z"/><path class="st0" d="M109.3 143.1l1.4-1.5 10-9.9h50.9l-2.9-2.9h-45.2l-1.9 2 10.4-10.5h28.2l-2.8-2.8h-22.5l2.8-2.8h16.9l-2.9-2.9h-11.2l-2 2.1 4.9-4.9h5.5l-2.8-2.8-.9 1 .9-1-35.4-35.4-35.4 35.4 8.4 8.5 3.6 3.5-.7-.7H64l-2.8 2.8h28.2l5.7 5.7 2.8 2.8 5.7 5.7 5.7 5.7h-68l-1.4 1.5 1.4 1.4zM268 126h39.6l-2.9-2.8h-33.8zM160.3 92.1H132l2.8 2.8h22.7z"/><path class="st0" d="M49.9 131.7h50.8l-2.8-2.9H52.7zm206.7 5.7h62.3l-2.9-2.9h-56.5zm5.8-5.7h50.8l-2.8-2.9h-45.2zm-204-8.5l-2.9 2.8h39.6l-2.9-2.8zm-14.2 14.2h62.3l-2.9-2.9H47zm101.9-31.2l2.9-2.8h-5.7l2.8 2.8zm8.5-8.5h-17l2.9 2.9h11.3zM78.1 109l-2.8-2.8-2.8 2.8zm116.2 187h45.3l2.9-2.8h-51zM69.7 111.8l-2.8 2.9h16.8l-2.8-2.9zm110.4 31.3l1.4-1.4-1.4-1.5h-68l-1.4 1.4 1.4 1.5zm-96.3 25.5h-17l2.8 2.8H81zm-8.5 8.5l2.9-2.9h-5.7l2.8 2.9zm229.5 53.8l2.8-2.8H268l2.8 2.8zm-215.3-68H61.1l2.9 2.8h22.6zm138.8 73.7l2.8-2.9h-28.3l2.8 2.9zM217 247.9l2.8-2.8h-5.7l2.9 2.8zm-62.4-79.3h-17l2.9 2.8h11.3zm68-68l2.9-2.9h-17l2.8 2.9zM95.1 157.2H55.5l2.8 2.9h34zm65.2 5.7H132l2.8 2.8h22.7zm-14.2 14.2l2.9-2.9h-5.7l2.8 2.9zm90.7 51h-39.7l2.9 2.8h34zm-96.3 25.4l-2.8 2.8h16.9l-2.9-2.8z"/><path class="st0" d="M323.2 141.7l-1.4 1.4 1.4-1.4-1.4-1.4h-68l-1.4 1.4 1.4 1.4h68l-4.3 4.3 1.4-1.4h-62.3l2.8 2.8h56.7l-8.5 8.5H268l2.8 2.8h34l2.7-2.7-5.5 5.5h-28.3l2.8 2.8h22.7l1.5-1.5-4.4 4.4h-17l2.8 2.8h11.3l.8-.8-6.4 6.4 5.6 5.6h-11.2l-2.8 2.8h16.9l8.5 8.5h-33.9l-2.8 2.8h39.5l-1.5-1.5 4.3 4.3h-45.2l-2.8 2.8h50.9l-1.9-1.9 4.7 4.7h-56.5l-2.9 2.9H319l-2.4-2.4 5.2 5.2h-68l-1.4 1.4-1.4-1.4h-68l2.8-2.8h62.3l-1.6-1.6c-1.4.4-2.8.6-4.3.6-2.8 0-5.4-.6-7.8-1.8h-45.7l2.8-2.8H230c-1-.8-2-1.8-2.9-2.8h-32.8l2.8-2.8h27.8c-.6-.9-1.2-1.8-1.7-2.8H200l2.8-2.8H222c-.4-.9-.7-1.9-1-2.8h-15.3l2.8-2.8h11.7c-.2-.9-.4-1.9-.5-2.8h-8.4l2.8-2.8h5.2v-.3l-2.4-2.4-19.6-19.6 2.6 2.6h23c.5-1 1-1.9 1.5-2.8h-27.3l-5.2-5.2 2.3 2.3h32.1c.8-1 1.7-2 2.6-2.8h-37.5l-2.8-2.8h44.1c2.9-1.8 6.1-2.7 9.5-2.7 1.7 0 3.4.3 5.1.8l.9-.9h-62.3l-2.8-2.8h68l1.4-1.4 21.3-21.3H302l-2.8-2.8h-22.5l2.8-2.8h16.9l-2.8-2.8h-11.2l2.8-2.8h5.5l-2.8-2.8-35.4-35.4-1.4-1.4h-68l-.5.5L186 67h62.3l-2.9-2.9h-56.5l2.8-2.8h50.9l-2.8-2.8h-45.2l2.8-2.8h39.5l-2.8-2.8h-33.9l2.8-2.8h28.2l-2.8-2.8h-22.5l2.8-2.8h16.9l-2.8-2.8h-11.2l2.8-2.8h5.5l-2.8-2.8L181.6 0l-35.4 35.4-2.8 2.8h5.5l2.8 2.8h-11.2l-2.8 2.8h16.9l2.8 2.8h-22.5l-2.8 2.8h28.2l2.8 2.8h-33.9l-2.8 2.8h39.5l2.8 2.8h-45.2l-2.8 2.8h50.9l2.8 2.8h-56.5l-2.9 2.9h62.3l2.8 2.8h-68l-1.4 1.4 1.4 1.4h68l1.4-1.4 1.4 1.4h68l-2.8 2.8h-62.3l2.8 2.8h56.7l-3.5 3.5.7-.7h-51l2.8 2.8h45.3l-2.8 2.8h-39.7l2.8 2.8h34l.9-.9-3.8 3.8h-28.3l2.8 2.8h22.7l-10 10.6 1.6-1.6h-5.7l2.8 2.8 5.6 5.6h-11.2l-2.8 2.8h16.9l2.8 2.8h-22.5l-2.8 2.8h28.2l2.8 2.8H200l-2.8 2.8h39.5l-1.4-1.4 4.2 4.2h-45.2l-2.8 2.8h50.9l2.8 2.8h-56.5l-2.9 2.9h62.3l2.8 2.8h-68l-1.4 1.4.8.8-.8-.8-4.2 4.2H115l2.8 2.8h56.7l2.7-2.7-5.5 5.5h-51l2.8 2.8h45.3l1.9-1.9-4.7 4.7h-39.7l2.8 2.8h34l1.8-1.8-18.8 18.8-2.8 2.8h5.5l2.8 2.8h-11.2l-2.8 2.8h16.9l2.8 2.8h-22.5l-2.8 2.8h28.2l-.4-.4 4.9 4.9-1.6-1.6h-33.9l-2.8 2.8h39.5l2.8 2.8h-45.2l-2.8 2.8h50.9l-2.6-2.6 7.8 7.8-2.3-2.3H118l-2.9 2.9h62.3l2.8 2.8h-68l-1.4 1.4-1.4-1.4h-68l-1.4 1.4 1.4 1.4h68l-2.8 2.8H44.1l2.8 2.8h56.7l-2.8 2.8h-51l2.8 2.8h45.3l-2.8 2.8H55.5l2.8 2.8h34l-8.5 8.5h-17l2.8 2.8h11.3l-2.8 2.8h-5.7l2.8 2.8.5-.5-.6.6 35.4 35.4 1.4 1.4h68l-5.4 5.4 2.6-2.6h-62.3l2.8 2.8h56.7l-2.8 2.8h-51l2.8 2.8h45.3l-2.8 2.8h-39.7l2.8 2.8h34l1.4-1.4-4.3 4.3h-28.3l2.8 2.8h22.7l-8.5 8.5H143l2.8 2.8 35.4 35.4 35.4-35.4-5.7-5.7h11.3l2.8-2.8h-17l.6.6-20.5-20.5h56.7l2.8-2.8h-62.3l2.3 2.3-6.6-6.6-1.4-1.4h-68l-.6.6 5-5-1.6 1.6h62.3l-2.9-2.9h-56.5l2.8-2.8H171l-2.8-2.8H123l2.8-2.8h39.5l-2.8-2.8h-33.9l-1.4 1.4 4.2-4.2h28.2l-2.8-2.8h-22.5l-.9.9 9.4-9.4h5.5l-2.8-2.8 2.8-2.8h-5.7l-2.8-2.8h11.3l2.8-2.8h-17l-4.6-4.6 1.8 1.8h22.7l2.8-2.8H132l-2.8-2.8h34l2.8-2.8h-39.7l-2.8-2.8h45.3l2.8-2.8h-51l-2.8-2.8h56.7l2.8-2.8H115l-2.8-2.8h68l1.4-1.4-1.3-1.3 1.3 1.3 1.4 1.4h68l-2.8 2.8h-62.3l2.8 2.8h56.7l-4.7 4.7 1.9-1.9h-51l2.8 2.8h45.3l-14.2 14.2h-17l2.8 2.8h11.3l-5.7 5.7 5.6 5.6h-11.2l-2.8 2.8h16.9l-.5-.5 3.3 3.3-.1-.1h-22.5l-2.8 2.8H231l4.1 4.1-1.3-1.3H200l-2.8 2.8h39.5l2.9 2.9-.1-.1h-45.2l-2.8 2.8h50.9l2.8 2.8h-56.5l-2.9 2.9h62.3l2.8 2.8h-68l-1.4 1.4 1.4 1.4h68l1.4-1.4 35.4-35.4 2.8-2.8H285l-2.8-2.8h11.3l2.8-2.8h-17l-2.8-2.8h22.7l2.8-2.8h-28.3l-5.7-5.7-2.8-2.8h45.3l2.8-2.8h-51l-2.8-2.8h56.7l2.8-2.8h-62.3l-2.8-2.8h68l1.4-1.4 35.4-35.4-35.5-34.6z"/><path class="st0" d="M290.6 179.8l-2.8-2.7-2.8 2.7zM219.7 109l-2.7-2.8-2.8 2.8zM44.1 208.2h62.4l-2.9-2.9H47l2.9-2.8h50.8l-2.8-2.8H52.7l2.8-2.9h39.6l-2.9-2.8H58.4l2.8-2.8h28.2l-2.8-2.9H64l-.1.2 3-3h16.8l-2.8-2.8H69.7l2.8-2.9h5.6l-2.8-2.7-22.7-22.7H98l2.8-2.8h-51l2.4 2.3-12.3-12.2-35.4 35.4 35.4 35.4 5.4-5.4zm175.6 42.5l-2.7-2.8-2.8 2.8zm68.1-73.6l2.8-2.9h-5.7l2.9 2.9zm11.3 11.2h-22.6l-2.8 2.9h28.2zm11.4-33.9l2.8-2.8h-51l2.8 2.8zm-91.1 19.8h-5.2l2.8 2.8 2.4-2.4c-.1-.1-.1-.2 0-.4zm.7-5.6h-11.6l2.8 2.8h8.3c.1-1 .3-1.9.5-2.8zm1.6-5.7h-18.9l2.8 2.8h15.1c.3-.9.7-1.9 1-2.8z"/><path class="st1" d="M143.5 182.4h11v-11.2h8.3v31.4H155v11.3h32.6v-11.3h-7.8v-31.4h8.2v11.7h11v-23h-55.5v22.5zm100-43.4c-8.7 0-19.3 2.5-27.4 10.9-9.2 9.3-10.4 20.4-10.4 27.3 0 6.8 1.4 18 10.5 27.5 7.9 8.2 17.8 10.7 26.7 10.7 12.7 0 21.2-5.1 26.8-10.8 9.1-9.3 10.4-20.9 10.4-27.4 0-6.6-1.4-18.1-10.3-27.4-4.2-4.2-12.6-10.8-26.3-10.8zm-.6 63.4c-9.2 0-18-8.1-18-25.2 0-17.2 8.9-25.2 18-25.2 9.2 0 18 8.1 18 25.2 0 17.2-8.9 25.2-18 25.2zm-133-43.7c-6.6 0-14.7 1.9-20.9 8.1-7 6.9-7.9 15.1-7.9 20.2 0 5 1.1 13.4 8 20.4 6.1 6.1 13.6 7.9 20.4 7.9 9.7 0 16.2-3.8 20.5-8 6.9-6.9 8-15.5 8-20.3 0-4.9-1.1-13.5-7.9-20.3-3.3-3.1-9.7-8-20.2-8zm-.5 44.9c-5.9 0-11.6-5.3-11.6-16.5 0-11.3 5.7-16.5 11.6-16.5 5.9 0 11.6 5.3 11.6 16.5s-5.7 16.5-11.6 16.5zm199.8-52h7.8v-11.4h-33.6v11.4h7.8v50.9h-7.8v11.3H317v-11.3h-7.8v-50.9zm46.1 51l-24.1-30.2 19.4-20.7h7.4v-11.4h-31.2v11.4h7.6l-20.9 23.6 21.5 27.3h-8.3v11.3H363v-11.3h-7.7zm-336.7-51h8.3c-.2 4.1-.6 13.7-1.5 23.3-1.2 12.8-2.6 22.7-9.2 26.2-3.4 1.8-8.3.9-11.7-.1L0 212.4c6 2.9 16.1 4.6 23.9.6 13.2-6.7 14.4-25.2 15.7-41.1.9-11 1.2-18 1.3-20.3H54v50.9h-7.8v11.3h33.6v-11.3H72v-50.9h7.8v-11.4H18.6v11.4z"/></svg>