<svg id="Layer_2" xmlns="http://www.w3.org/2000/svg" viewBox="0 0 300 78.6"><style>.st0{display:none;fill:#fcc800}.st1{fill:#fff}.st2{fill:#004d80}</style><path class="st0" d="M-75.5 0h451.6v78.6H-75.5z"/><path class="st1" d="M105.5 25.1l-1.6 1.6H78.8l-1.6-1.6h28.3zm-22 6.3l1.6 1.6h12.6l1.6-1.6H83.5zm-3.1-3.1l1.6 1.6h18.9l1.6-1.6H80.4zm-8.7-8.7l.8.8h37.7l.8-.8-.8-.8H72.5l-.8.8zm14.9 15l1.6 1.6h6.3l1.6-1.6h-9.5zm3.2 3.1l1.6 1.6 1.6-1.6h-3.2zM74.1 22l1.6 1.6h31.4l1.6-1.6H74.1zm11-15.7l-1.6 1.6h15.6l-1.6-1.6H85.1zm3.2-3.2l-1.6 1.6h9.4l-1.6-1.6h-6.2zm1.5-1.6h3.1L91.4 0l-1.6 1.5zm-11 11l-1.6 1.6h28.2l-1.6-1.6h-25zm-3.1 3.2l-1.6 1.6h34.6l-1.6-1.6H75.7zM82 9.4L80.4 11h21.9l-1.6-1.6H82zm29 49.5l19.6 19.6H91.4L111 58.9z"/><path class="st1" d="M71.7 19.6l19.6 19.6-19.6 19.7-19.6-19.6 19.6-19.7zm78.6 0L170 39.3l-19.6 19.6-19.6-19.6 19.5-19.7zM209.2 0l-19.6 19.6L170 0h39.2zm-19.6 58.9l19.6 19.6H170l19.6-19.6zm39.3-39.3l19.6 19.6-19.6 19.6-19.6-19.6 19.6-19.6zM130.7 0L111 19.6 91.4 0h39.3z"/><path class="st1" d="M184.1 64.4l-1.6 1.6h-25.2l-1.6-1.6h28.4zm-22 6.3l1.6 1.6h12.6l1.6-1.6h-15.8zm-3.2-3.1l1.6 1.6h18.9l1.6-1.6h-22.1zm-8.6-8.7l.8.8h37.7l.8-.8-.8-.8h-37.7l-.8.8zm14.9 15l1.6 1.6h6.3l1.6-1.6h-9.5zm3.2 3.1l1.6 1.6 1.6-1.6h-3.2zm-15.7-15.7l1.6 1.6h31.4l1.6-1.6h-34.6zm11-15.8l-1.6 1.6h15.6l-1.6-1.6h-12.4zm3.1-3.1l-1.6 1.6h9.4l-1.6-1.6h-6.2zm1.6-1.6h3.1l-1.5-1.5-1.6 1.5zm-11 11l-1.6 1.6H184l-1.6-1.6h-25zm-3.1 3.2l-1.6 1.6h34.6l-1.6-1.6h-31.4zm6.3-6.3l-1.6 1.6h21.9l-1.6-1.6h-18.7zm62.8-23.6l-1.6 1.6h-25.2l-1.6-1.6h28.4zm-22 6.3L203 33h12.6l1.6-1.6h-15.8zm-3.2-3.1l1.6 1.6h18.9l1.6-1.6h-22.1zm-8.6-8.7l.8.8h37.7l.8-.8-.8-.8h-37.7l-.8.8zm14.9 15l1.6 1.6h6.3l1.6-1.6h-9.5zm3.2 3.1l1.6 1.6 1.6-1.6h-3.2zM192 22l1.6 1.6H225l1.6-1.6H192zm11-15.7l-1.6 1.6H217l-1.6-1.6H203zm3.1-3.2l-1.6 1.6h9.4l-1.6-1.6h-6.2zm1.6-1.6h3.1L209.2 0l-1.5 1.5zm-11 11l-1.6 1.6h28.2l-1.6-1.6h-25zm-3.1 3.2l-1.6 1.6h34.6l-1.6-1.6h-31.4zm6.3-6.3l-1.6 1.6h21.9l-1.6-1.6h-18.7zm23.5 55l-1.6 1.6h-25.2l-1.6-1.6h28.4zm-22 6.3l1.6 1.6h12.6l1.6-1.6h-15.8zm-3.2-3.1l1.6 1.6h18.9l1.6-1.6h-22.1zm-8.6-8.7l.8.8h37.7l.8-.8-.8-.8h-37.7l-.8.8zm14.9 15l1.6 1.6h6.3l1.6-1.6h-9.5zm3.2 3.1l1.6 1.6 1.6-1.6h-3.2zM192 61.3l1.6 1.6H225l1.6-1.6H192zm11-15.8l-1.6 1.6H217l-1.6-1.6H203zm3.1-3.1l-1.6 1.6h9.4l-1.6-1.6h-6.2zm1.6-1.6h3.1l-1.5-1.5-1.6 1.5zm-11 11l-1.6 1.6h28.2l-1.6-1.6h-25zm-3.1 3.2l-1.6 1.6h34.6L225 55h-31.4zm6.3-6.3l-1.6 1.6h21.9l-1.6-1.6h-18.7z"/><path class="st1" d="M184.1 25.1l-1.6 1.6h-25.2l-1.6-1.6h28.4zm-22 6.3l1.6 1.6h12.6l1.6-1.6h-15.8zm-3.2-3.1l1.6 1.6h18.9l1.6-1.6h-22.1zm-8.6-8.7l.8.8h37.7l.8-.8-.8-.8h-37.7l-.8.8zm14.9 15l1.6 1.6h6.3l1.6-1.6h-9.5zm3.2 3.1l1.6 1.6 1.6-1.6h-3.2zM152.7 22l1.6 1.6h31.4l1.6-1.6h-34.6zm11-15.7l-1.6 1.6h15.6l-1.6-1.6h-12.4zm3.1-3.2l-1.6 1.6h9.4L173 3.1h-6.2zm1.6-1.6h3.1L170 0l-1.6 1.5zm-11 11l-1.6 1.6H184l-1.6-1.6h-25zm-3.1 3.2l-1.6 1.6h34.6l-1.6-1.6h-31.4zm6.3-6.3L159 11h21.9l-1.6-1.6h-18.7zm-15.8 55l-1.6 1.6H118l-1.6-1.6h28.4zm-22 6.3l1.6 1.6H137l1.6-1.6h-15.8zm-3.1-3.1l1.6 1.6h18.9l1.6-1.6h-22.1zm-8.7-8.7l.8.8h37.7l.8-.8-.8-.8h-37.7l-.8.8zm14.9 15l1.6 1.6h6.3l1.6-1.6h-9.5zm3.2 3.1l1.6 1.6 1.6-1.6h-3.2zm-15.7-15.7l1.6 1.6h31.4l1.6-1.6h-34.6zm11-15.8l-1.6 1.6h15.6l-1.6-1.6h-12.4zm3.1-3.1L126 44h9.4l-1.6-1.6h-6.3zm1.6-1.6h3.1l-1.5-1.5-1.6 1.5zm-11 11l-1.6 1.6h28.2l-1.6-1.6h-25zM115 55l-1.6 1.6H148l-1.6-1.6H115zm6.3-6.3l-1.6 1.6h21.9l-1.6-1.6h-18.7zm-15.8 15.7l-1.6 1.6H78.8l-1.6-1.6h28.3zm-22 6.3l1.6 1.6h12.6l1.6-1.6H83.5zm-3.1-3.1l1.6 1.6h18.9l1.6-1.6H80.4zm-8.7-8.7l.8.8h37.7l.8-.8-.8-.8H72.5l-.8.8zm14.9 15l1.6 1.6h6.3l1.6-1.6h-9.5zm3.2 3.1l1.6 1.6L93 77h-3.2zM74.1 61.3l1.6 1.6h31.4l1.6-1.6H74.1zm11-15.8l-1.6 1.6h15.6l-1.6-1.6H85.1zm3.2-3.1L86.7 44H96l-1.6-1.6h-6.1zm1.5-1.6h3.1l-1.5-1.5-1.6 1.5zm-11 11l-1.6 1.6h28.2l-1.6-1.6h-25zM75.7 55l-1.6 1.6h34.6L107 55H75.7zm6.3-6.3l-1.6 1.6h21.9l-1.6-1.6H82zm62.8-23.6l-1.6 1.6H118l-1.6-1.6h28.4zm-22 6.3l1.6 1.6H137l1.6-1.6h-15.8zm-3.1-3.1l1.6 1.6h18.9l1.6-1.6h-22.1zm-8.7-8.7l.8.8h37.7l.8-.8-.8-.8h-37.7l-.8.8zm14.9 15l1.6 1.6h6.3l1.6-1.6h-9.5zm3.2 3.1l1.6 1.6 1.6-1.6h-3.2zM113.4 22l1.6 1.6h31.4L148 22h-34.6zm11-15.7l-1.6 1.6h15.6l-1.6-1.6h-12.4zm3.1-3.2L126 4.7h9.4l-1.6-1.6h-6.3zm1.6-1.6h3.1L130.7 0l-1.6 1.5zm-11 11l-1.6 1.6h28.2l-1.6-1.6h-25zm-3.1 3.2l-1.6 1.6H148l-1.6-1.6H115zm6.3-6.3l-1.6 1.6h21.9L140 9.4h-18.7z"/><path class="st2" d="M200.2 71.4c-8.9 0-16.7-3.1-22.4-9-7.3-7.6-8.8-16.7-8.8-23.1 0-9.3 2.9-17 8.8-22.9 7.8-8 17.7-9.2 23-9.2 10.9 0 18.1 5 22.1 9.1 7.5 7.9 8.7 17.8 8.7 23 0 6.4-1.5 15.5-8.7 23-6.1 6-13.6 9.1-22.7 9.1zm0-51.6c-6.8 0-13.7 6-13.7 19.5s6.9 19.5 13.7 19.5c6.8 0 13.7-6 13.7-19.5s-6.9-19.5-13.7-19.5zM91.6 71.4c-6.9 0-12.9-2.3-17.3-6.8-5.6-5.7-6.8-12.6-6.8-17.3 0-7 2.3-12.7 6.8-17.2 6-6 13.7-6.9 17.7-6.9 8.4 0 13.9 3.7 17 6.8 5.8 5.9 6.7 13.3 6.7 17.2 0 4.8-1.2 11.6-6.8 17.2-4.4 4.6-10.4 7-17.3 7zm0-36.5c-4.2 0-8.4 3.8-8.4 12.4 0 8.6 4.2 12.5 8.4 12.5s8.4-3.9 8.4-12.5-4.2-12.4-8.4-12.4zM13.4 71.4c-3.9 0-8-.9-11.2-2.5l-.8-.4 4.3-11 .9.3c1.4.4 3.4.9 5.3.9 1.4 0 2.6-.2 3.5-.7 5-2.6 6.1-10.5 7-20.5.7-7.2 1-14.3 1.2-17.9h-6.7V8.2h51.8v11.3h-6.4V59h6.4v11.2H39.2V58.9h6.4V19.5h-8.7c0 .3 0 .7-.1 1.2-.2 2.9-.4 7.7-1 14.4l-.1.8c-1.1 13-2.3 27.8-13.3 33.4-2.5 1.4-5.6 2.1-9 2.1zm254-1.2V59h5.7l-16.8-21.3 16.1-18.2h-5V8.2h27.4v11.3h-6.6l-14.9 15.9L292.1 59h6.9v11.2h-31.6zm-35.2 0V59h6.3V19.5h-6.3V8.2h29.3v11.3h-6.4V59h6.4v11.2h-29.3zm-104.4 0V59h6.3V35.4h-4.7v9.1h-11V24.1h47.2v20.7h-11v-9.5h-4.7V59h6.4v11.2h-28.5z"/><path class="st1" d="M200.7 8.2c11.1 0 18 5.4 21.4 8.8 7.2 7.5 8.4 16.9 8.4 22.3 0 5.3-1.1 14.7-8.5 22.3-4.5 4.7-11.5 8.8-21.8 8.8-7.2 0-15.3-2.1-21.7-8.7-7.4-7.7-8.5-16.8-8.5-22.4 0-5.6 1-14.6 8.5-22.2 6.5-6.8 15.2-8.9 22.2-8.9m-.5 51.6c7.5 0 14.7-6.6 14.7-20.5 0-14-7.2-20.5-14.7-20.5-7.5 0-14.7 6.6-14.7 20.5 0 14 7.2 20.5 14.7 20.5m93.7-50.6v9.3h-6l-15.8 16.9L291.7 60h6.4v9.2h-29.6V60h6.7l-17.5-22.2 17-19.2h-6.2V9.2h25.4m-33.4 0v9.3h-6.4V60h6.4v9.2h-27.3V60h6.3V18.5h-6.3V9.2h27.3m-192.9 0v9.3h-6.4V60h6.4v9.2H40.2V60h6.4V18.5H35.9c-.1 1.8-.3 7.6-1.1 16.5-1.1 13-2.1 27.9-12.8 33.4-2.7 1.4-5.7 1.9-8.7 1.9-4 0-8-1-10.8-2.4l3.6-9.3c1.6.5 3.7.9 5.6.9 1.4 0 2.8-.2 3.9-.8 5.4-2.8 6.5-10.9 7.5-21.3.7-7.8 1.1-15.7 1.2-19h-6.7V9.2h50M92 24.3c8.5 0 13.8 4 16.3 6.5 5.5 5.6 6.4 12.6 6.4 16.5 0 3.9-.8 10.9-6.5 16.5-3.5 3.5-8.8 6.5-16.6 6.5-5.5 0-11.7-1.5-16.6-6.5-5.6-5.7-6.5-12.5-6.5-16.6 0-4.2.8-10.8 6.5-16.5 5-4.9 11.6-6.4 17-6.4m-.4 36.5c4.8 0 9.4-4.3 9.4-13.5s-4.6-13.4-9.4-13.4c-4.8 0-9.4 4.3-9.4 13.4 0 9.2 4.6 13.5 9.4 13.5m73-35.7v18.7h-9v-9.5h-6.7V60h6.4v9.2h-26.5V60h6.3V34.4h-6.7v9.1h-9V25.1h45.2m36.1-18.9c-5.4 0-15.7 1.2-23.7 9.5-6 6.1-9 14-9 23.6 0 6.5 1.6 15.9 9.1 23.7 5.9 6.1 13.9 9.3 23.2 9.3 9.2 0 17.3-3.3 23.2-9.4 7.5-7.7 9-17.1 9-23.7 0-5.4-1.2-15.6-8.9-23.7-4.3-4.2-11.6-9.3-22.9-9.3zm-.5 51.6c-6.3 0-12.7-5.7-12.7-18.5s6.4-18.5 12.7-18.5c6.3 0 12.7 5.7 12.7 18.5s-6.4 18.5-12.7 18.5zm95.7-50.6h-29.4v13.3h3.7l-14.1 15.9V20.5h6.4V7.2h-31.3v13.3h6.3V58h-6.3v13.2h31.3V58h-6.4V39.1L271 58h-4.6v13.2H300V58h-7.4l-17.9-22.5 14-15h7.1V7.2h.1zm-226.3 0H15.7v13.3h6.7c-.2 3.8-.5 10.3-1.1 16.8-.9 9.4-1.9 17.4-6.4 19.8-.8.4-1.8.6-3 .6-1.8 0-3.8-.5-5-.8L5 56.3 4.3 58 .7 67.3.1 69l1.7.8c3.4 1.6 7.6 2.6 11.6 2.6 3.6 0 6.8-.7 9.6-2.2C34.5 64.3 35.7 49.3 36.8 36l.1-.8c.6-6.7.8-11.6 1-14.5v-.2h6.8V58h-6.4v13.2h31.4V59.9c1 1.9 2.3 3.7 4.1 5.4 4.6 4.6 10.8 7.1 18 7.1 7.2 0 13.4-2.5 18.1-7.1 5.8-5.8 7.1-13 7.1-17.9 0-4.1-.9-11.8-7-17.9-3.3-3.3-9-7.1-17.8-7.1-4.2 0-12.2.9-18.4 7.2-4.7 4.6-7.1 10.6-7.1 17.9 0 3 .5 6.8 2.1 10.6h-5.5V20.5h6.4V7.2h-.1zm22 51.6c-3.7 0-7.4-3.5-7.4-11.5 0-7.9 3.7-11.4 7.4-11.4S99 39.4 99 47.3s-3.7 11.5-7.4 11.5zm75-35.7h-49.2v22.4h13v-9.1h2.7V58h-6.3v13.2h30.5V58h-6.4V36.4h2.7v9.5h13V23.1z"/></svg>